<?xml version="1.0" encoding="utf-8"?>
<!-- Generator: Adobe Illustrator 24.0.1, SVG Export Plug-In . SVG Version: 6.00 Build 0)  -->
<svg version="1.1" id="Capa_1" xmlns="http://www.w3.org/2000/svg" xmlns:xlink="http://www.w3.org/1999/xlink" x="0px" y="0px"
	 viewBox="0 0 415.47 415.47" style="enable-background:new 0 0 415.47 415.47;" xml:space="preserve">
<style type="text/css">
	.st0{fill:#FFFFFF;}
	.st1{fill:#E0E0E0;}
	.st2{fill:url(#SVGID_1_);}
	.st3{fill:#BDBCBC;}
	.st4{fill:#DADADA;}
	.st5{fill:#BEBEBE;}
	.st6{fill:#006AB3;}
	.st7{fill:#95C11F;}
	.st8{fill:#77C5D6;}
	.st9{fill:#B6D0C9;}
	.st10{fill:#D6E2EA;}
	.st11{fill:#D27F29;}
	.st12{fill:#F9BB8D;}
	.st13{fill:#591A0C;}
	.st14{fill:#782519;}
	.st15{fill:#ECDABB;}
	.st16{fill:#FEECD4;}
	.st17{fill:#D06037;}
	.st18{fill:#EBDFDA;}
	.st19{fill:#431A0D;}
	.st20{fill:#DF996D;}
	.st21{fill:none;stroke:#592211;stroke-width:0.5656;stroke-miterlimit:10;}
	.st22{fill:#592211;}
	.st23{fill:#9AD3F5;}
	.st24{fill:#6CAADD;}
	.st25{fill:#68BDEB;}
	.st26{fill:#3C90CE;}
	.st27{fill:#7C5DA4;}
	.st28{fill:#E6AE83;}
	.st29{fill:#7A5D92;}
	.st30{fill:#394246;}
	.st31{fill:#262C2F;}
	.st32{fill:#1A1B25;}
	.st33{fill:#CCCCCC;}
	.st34{fill:#6E5483;}
	.st35{fill:#CCC3BE;}
	.st36{fill:#E0D5D0;}
	.st37{fill:#131818;}
	.st38{fill:#1E2425;}
</style>
<g>
	<rect class="st0" width="415.47" height="415.47"/>
	<path class="st1" d="M158.01,386.68c0,4.15-21.13,7.52-47.19,7.52c-26.06,0-47.19-3.37-47.19-7.52c0-4.15,21.13-7.52,47.19-7.52
		C136.89,379.16,158.01,382.52,158.01,386.68z"/>
	<path class="st1" d="M359.42,383.98c0,4.15-26.3,7.52-58.75,7.52c-32.44,0-58.75-3.37-58.75-7.52c0-4.15,26.3-7.52,58.75-7.52
		C333.12,376.46,359.42,379.82,359.42,383.98z"/>
	
		<linearGradient id="SVGID_1_" gradientUnits="userSpaceOnUse" x1="423.1082" y1="303.2436" x2="423.1082" y2="-94.9852" gradientTransform="matrix(0.9946 0.1034 -0.0954 0.9178 -213.2493 58.0823)">
		<stop  offset="0" style="stop-color:#45BABD"/>
		<stop  offset="0.1929" style="stop-color:#73B9C2"/>
		<stop  offset="0.5984" style="stop-color:#B6ACC5"/>
		<stop  offset="0.9572" style="stop-color:#E08CBB"/>
	</linearGradient>
	<path class="st2" d="M209.34,355.19c25.59,0.51,45,13.19,70.5,17.01c25.18,3.77,68.32,2.43,86.72-15.7
		c28.43-28.03,25.29-90.25,10.1-122.69c-7.57-16.17-16.53-29.32-9.6-47.22c6.98-18.04,21.84-30.19,25.85-50.02
		c4.01-19.83,2.04-35.28-13.41-50.09c-17.69-16.97-39.27-12.81-60.85-22.94c-15.01-7.05-20.78-18.65-33.2-28.51
		c-10.88-8.64-20.96-10.76-34.11-14.25c-28.11-7.45-68.06-13.78-80.36,19.32c-5.51,14.85-9.95,28.73-28.35,34.74
		c-18.99,6.21-40.08-2.71-58.95-4.83c-19.22-2.16-47.43,0.38-63.52,10.58c-13.41,8.5-14.9,27.86-15.09,41.74
		c-0.49,34.52,11.38,64.27,45.13,81.09c25.4,12.66,53.25,45.76,17.82,64c-24.68,12.7-52.44,44.07-37.94,73.77
		c7.49,15.33,32.74,25.82,49.23,28.48c22.7,3.66,42.8-1.2,63.71-7.62C160.52,356.67,183.74,354.68,209.34,355.19z"/>
	<g>
		<g>
			<g>
				<path class="st3" d="M295.48,142.65c0,3.44-3.59,6.22-8.01,6.22h-12.01c-4.42,0-8.01-2.79-8.01-6.22v-28.91
					c0-3.44,3.58-6.22,8.01-6.22h12.01c4.42,0,8.01,2.79,8.01,6.22V142.65z"/>
				<path class="st3" d="M295.48,194.12c0,3.44-3.59,6.22-8.01,6.22h-12.01c-4.42,0-8.01-2.79-8.01-6.22V165.2
					c0-3.44,3.58-6.22,8.01-6.22h12.01c4.42,0,8.01,2.79,8.01,6.22V194.12z"/>
				<path class="st4" d="M135.91,374.79c-4.09,0-7.41-4.04-7.41-9.02V88.13c0-4.98,3.32-9.02,7.41-9.02H281.7
					c4.1,0,7.42,4.04,7.42,9.02v277.63c0,4.98-3.32,9.02-7.42,9.02H135.91z"/>
				<path class="st5" d="M142.86,355.58c-3.71,0-6.71-3.51-6.71-7.85V106.17c0-4.34,3-7.85,6.71-7.85h131.9
					c3.7,0,6.71,3.51,6.71,7.85v241.57c0,4.33-3,7.85-6.71,7.85H142.86z"/>
				<path class="st0" d="M141.49,351.49c-4.69,0-5.34-0.73-5.34-4.93V107.33c0-4.2,0.65-4.93,5.34-4.93h134.64
					c4.69,0,5.34,0.73,5.34,4.93v239.23c0,4.2-0.65,4.93-5.34,4.93H141.49z"/>
				<path class="st6" d="M281.46,124.18v-16.85c0-4.2-0.65-4.93-5.34-4.93H141.49c-4.69,0-5.34,0.73-5.34,4.93v16.85H281.46z"/>
				<path class="st3" d="M208.81,95.52c-2.67,0-4.84-2.17-4.84-4.84c0-2.67,2.16-4.84,4.84-4.84c2.67,0,4.84,2.17,4.84,4.84
					C213.65,93.35,211.48,95.52,208.81,95.52z"/>
				<rect x="187.01" y="357.56" class="st3" width="43.59" height="10.68"/>
			</g>
			<g>
				<path class="st4" d="M255.61,130.66c0,1.43-1.16,2.6-2.59,2.6c-1.43,0-2.59-1.16-2.59-2.6c0-1.43,1.16-2.59,2.59-2.59
					C254.45,128.06,255.61,129.22,255.61,130.66z"/>
				<path class="st4" d="M264.81,130.66c0,1.43-1.16,2.6-2.59,2.6c-1.43,0-2.6-1.16-2.6-2.6c0-1.43,1.16-2.59,2.6-2.59
					C263.65,128.06,264.81,129.22,264.81,130.66z"/>
				<path class="st4" d="M274.01,130.66c0,1.43-1.16,2.6-2.59,2.6c-1.43,0-2.59-1.16-2.59-2.6c0-1.43,1.16-2.59,2.59-2.59
					C272.84,128.06,274.01,129.22,274.01,130.66z"/>
			</g>
			<rect x="144.28" y="134.91" class="st7" width="27.94" height="27.94"/>
			<rect x="145.5" y="175.06" class="st8" width="129.13" height="145.88"/>
			<g>
				<path class="st9" d="M158.84,149.71c3.46,0,6.27-2.81,6.27-6.27c0-3.46-2.81-6.27-6.27-6.27c-3.46,0-6.27,2.81-6.27,6.27
					C152.57,146.9,155.38,149.71,158.84,149.71z"/>
				<path class="st9" d="M158.84,150.98c-5.3,0-9.6,4.3-9.6,9.6h19.2C168.44,155.28,164.14,150.98,158.84,150.98z"/>
			</g>
			<rect x="179.72" y="136.61" class="st7" width="44.81" height="9.43"/>
			<rect x="179.72" y="148.88" class="st10" width="92.72" height="4.71"/>
			<rect x="179.72" y="156.42" class="st10" width="35.93" height="4.72"/>
			<path class="st10" d="M181.73,338.29c0,2.94-2.12,5.32-4.74,5.32h-20.07c-2.62,0-4.74-2.38-4.74-5.32l0,0
				c0-2.94,2.12-5.32,4.74-5.32H177C179.61,332.97,181.73,335.35,181.73,338.29L181.73,338.29z"/>
			<path class="st10" d="M226.85,338.29c0,2.94-2.12,5.32-4.74,5.32h-20.07c-2.62,0-4.74-2.38-4.74-5.32l0,0
				c0-2.94,2.12-5.32,4.74-5.32h20.07C224.73,332.97,226.85,335.35,226.85,338.29L226.85,338.29z"/>
			<path class="st10" d="M271.97,338.29c0,2.94-2.12,5.32-4.74,5.32h-20.07c-2.62,0-4.74-2.38-4.74-5.32l0,0
				c0-2.94,2.12-5.32,4.74-5.32h20.07C269.85,332.97,271.97,335.35,271.97,338.29L271.97,338.29z"/>
			<g>
				<path class="st0" d="M145.03,117.16v-7.24h1.5c0.23,0,0.42,0.04,0.56,0.11c0.15,0.08,0.26,0.21,0.35,0.39
					c0.09,0.18,0.15,0.43,0.19,0.74c0.03,0.31,0.05,0.7,0.05,1.16c0,0.46-0.02,0.85-0.05,1.16c-0.04,0.32-0.1,0.57-0.18,0.77
					c-0.09,0.19-0.21,0.34-0.36,0.43c-0.15,0.09-0.34,0.13-0.57,0.13h-0.65v2.34H145.03z M146.39,113.98c0.08,0,0.14-0.03,0.2-0.08
					c0.05-0.05,0.1-0.14,0.14-0.26c0.04-0.12,0.07-0.29,0.09-0.51c0.02-0.21,0.03-0.49,0.03-0.82c0-0.33-0.01-0.59-0.03-0.79
					c-0.02-0.2-0.05-0.36-0.09-0.47c-0.04-0.11-0.09-0.18-0.14-0.22c-0.06-0.04-0.12-0.06-0.2-0.06h-0.51v3.2H146.39z"/>
				<path class="st0" d="M150.11,117.16c-0.02-0.04-0.04-0.08-0.05-0.12c-0.01-0.04-0.02-0.1-0.03-0.18
					c-0.01-0.08-0.02-0.18-0.03-0.31c-0.01-0.13-0.02-0.3-0.03-0.52c-0.01-0.24-0.03-0.49-0.04-0.73c-0.02-0.25-0.04-0.49-0.07-0.73
					c-0.03-0.2-0.07-0.33-0.13-0.38c-0.05-0.06-0.15-0.09-0.27-0.09h-0.4v3.06h-0.84v-7.24h1.53c0.22,0,0.4,0.03,0.52,0.08
					s0.23,0.14,0.32,0.25c0.06,0.08,0.11,0.16,0.15,0.25c0.04,0.09,0.07,0.2,0.1,0.33c0.03,0.13,0.04,0.28,0.05,0.44
					c0.01,0.17,0.01,0.37,0.01,0.59c0,0.23,0,0.42-0.01,0.58c-0.01,0.16-0.02,0.29-0.03,0.4c-0.02,0.11-0.03,0.21-0.05,0.28
					c-0.02,0.08-0.04,0.15-0.07,0.21c-0.04,0.11-0.1,0.19-0.16,0.25c-0.06,0.06-0.13,0.1-0.2,0.13v0.05
					c0.06,0.03,0.13,0.09,0.19,0.18c0.06,0.09,0.1,0.23,0.13,0.43c0.04,0.33,0.08,0.67,0.11,1.01c0.03,0.34,0.05,0.7,0.07,1.07
					c0.01,0.15,0.03,0.27,0.04,0.37c0.02,0.1,0.04,0.2,0.07,0.3v0.04H150.11z M149.43,113.32c0.11,0,0.21-0.02,0.29-0.05
					c0.08-0.03,0.14-0.1,0.19-0.21c0.03-0.05,0.04-0.1,0.06-0.15c0.01-0.05,0.02-0.12,0.03-0.21c0.01-0.09,0.02-0.19,0.02-0.33
					c0-0.13,0-0.3,0-0.51c0-0.16,0-0.29,0-0.4c0-0.1-0.01-0.19-0.01-0.26c-0.01-0.07-0.02-0.12-0.03-0.16
					c-0.02-0.04-0.03-0.08-0.05-0.11c-0.08-0.12-0.19-0.18-0.33-0.18h-0.54v2.56H149.43z"/>
				<path class="st0" d="M151.56,116.69c-0.04-0.11-0.08-0.23-0.11-0.36c-0.03-0.13-0.06-0.31-0.08-0.53
					c-0.02-0.22-0.03-0.52-0.04-0.88c-0.01-0.36-0.01-0.82-0.01-1.39c0-0.57,0-1.03,0.01-1.39c0.01-0.36,0.02-0.65,0.04-0.87
					c0.02-0.22,0.04-0.4,0.08-0.53c0.03-0.13,0.07-0.25,0.11-0.36c0.09-0.22,0.22-0.38,0.38-0.46c0.17-0.09,0.41-0.13,0.74-0.13
					s0.57,0.04,0.74,0.13c0.17,0.09,0.29,0.24,0.38,0.46c0.04,0.11,0.08,0.24,0.12,0.36c0.03,0.13,0.06,0.3,0.08,0.53
					c0.02,0.22,0.03,0.51,0.04,0.87c0.01,0.36,0.01,0.82,0.01,1.39c0,0.57,0,1.03-0.01,1.39c-0.01,0.36-0.02,0.65-0.04,0.88
					c-0.02,0.22-0.04,0.4-0.08,0.53c-0.03,0.13-0.07,0.25-0.12,0.36c-0.09,0.22-0.22,0.38-0.38,0.46c-0.17,0.09-0.41,0.13-0.74,0.13
					s-0.57-0.04-0.74-0.13C151.78,117.07,151.65,116.91,151.56,116.69z M153.09,116.08c0.02-0.08,0.04-0.16,0.05-0.25
					c0.01-0.09,0.02-0.22,0.03-0.4c0.01-0.18,0.02-0.41,0.02-0.71c0.01-0.3,0.01-0.7,0.01-1.21c0-0.5,0-0.91,0-1.21
					c0-0.3-0.01-0.54-0.02-0.72c-0.01-0.18-0.02-0.31-0.03-0.39c-0.01-0.09-0.03-0.17-0.05-0.24c-0.03-0.11-0.08-0.2-0.14-0.24
					c-0.06-0.05-0.15-0.07-0.28-0.07s-0.22,0.02-0.28,0.07c-0.06,0.05-0.1,0.13-0.13,0.23c-0.02,0.08-0.04,0.16-0.05,0.25
					c-0.02,0.09-0.03,0.22-0.04,0.4c-0.01,0.18-0.02,0.41-0.02,0.72c0,0.3,0,0.71,0,1.21c0,0.5,0,0.91,0,1.21
					c0,0.3,0.01,0.54,0.02,0.71c0.01,0.18,0.02,0.31,0.04,0.4c0.02,0.09,0.03,0.17,0.05,0.25c0.03,0.11,0.08,0.19,0.13,0.24
					c0.06,0.04,0.15,0.07,0.28,0.07s0.22-0.02,0.28-0.07C153.02,116.27,153.06,116.19,153.09,116.08z"/>
				<path class="st0" d="M154.59,117.16v-7.24h2.21v0.86h-1.37v2.36h1.34v0.83h-1.34v3.18H154.59z"/>
				<path class="st0" d="M157.28,117.16v-7.24h0.87v7.24H157.28z"/>
				<path class="st0" d="M158.79,117.16v-7.24h0.84v6.34h1.29v0.9H158.79z"/>
				<path class="st0" d="M161.36,117.16v-7.24h2.24v0.86h-1.4v2.28h1.38v0.82h-1.38v2.38h1.39v0.9H161.36z"/>
			</g>
			<path class="st0" d="M278.25,113.29c0,4.43-3.59,8.02-8.02,8.02c-4.43,0-8.02-3.59-8.02-8.02c0-4.43,3.59-8.02,8.02-8.02
				C274.66,105.27,278.25,108.87,278.25,113.29z"/>
			<polygon class="st6" points="274.63,115.45 272.48,113.29 274.63,111.14 272.39,108.89 270.23,111.05 268.07,108.89 
				265.83,111.13 267.99,113.29 265.83,115.45 268.07,117.7 270.23,115.54 272.39,117.7 			"/>
		</g>
		<g>
			<path class="st11" d="M123.04,240.47l11.37-1.06c0,0,3.27-51.9-0.75-62.11c-4.02-10.2-10.62,2.07-10.62,2.07V240.47z"/>
			<rect x="93.28" y="204.29" class="st12" width="32.52" height="12.93"/>
			<path class="st12" d="M127.34,370.52c-2.04-3.71,11.05-68.34,3.36-107.77c-2.03-10.38-16.91-8.47-15.1,0
				c9,42.03,2.59,112.46,2.59,112.46s2.47,4.38,13.1,5.65c3.91,0.47,6.91-2.52,5.41-3.41C132.67,375.06,129.37,374.23,127.34,370.52
				z"/>
			<g>
				<path class="st13" d="M141.38,384.94c-1.88,0.44-9.33,0.31-15.21,0.09c-0.63-0.02-1-1.03-1.58-1.05
					c-0.28-0.01-0.79,0.95-1.06,0.94c-2.8-0.12-4.82-0.25-4.92-0.3c-0.89-0.46-0.85-4.92-0.85-4.92l26.21,2.46
					C143.97,382.16,143.97,384.32,141.38,384.94z"/>
				<path class="st14" d="M141.99,383.82c-3.17,0.86-20.02-1.97-21.96-2.47c-1.4-0.36-2.04-0.69-2.26-1.65
					c-0.22-0.95,0.15-2.22,0.42-4.48c2.61,2.28,9.02,3.61,12.58,4.48c3.56,0.88,5.95,0.23,5.92-2.25c1.92,0.94,3.66,1.71,4.55,1.97
					C144.25,380.3,145.16,382.96,141.99,383.82z"/>
			</g>
			<path class="st15" d="M134.05,312.42H120.3c0,0-7.25-53.1-9.72-55.97c-2.47-2.87,14.57-22.05,17.67-13.14
				C136.55,271.08,134.05,312.42,134.05,312.42z"/>
			<path class="st12" d="M135.08,171.75c-3.25-1.08-1.59,10.47-1.59,10.47l8.94,10.23l7.25-2.96
				C149.69,189.49,141.16,173.76,135.08,171.75z"/>
			<path class="st12" d="M85.43,372.07c-1.43-3.98,21.63-65.76,20.21-105.91c-0.37-10.57-15.38-11.01-14.91-2.37
				c2.3,42.92-15.07,111.47-15.07,111.47s1.75,4.71,12.05,7.63c3.79,1.07,7.22-1.41,5.88-2.52
				C89.99,377.38,86.87,376.05,85.43,372.07z"/>
			<g>
				<path class="st13" d="M97.05,388.51c-1.93,0.14-9.27-1.16-15.04-2.29c-0.62-0.12-0.83-1.17-1.4-1.28
					c-0.27-0.06-0.93,0.82-1.19,0.76c-2.75-0.56-4.72-1.01-4.82-1.07c-0.81-0.59-0.06-4.99-0.06-4.99l25.5,6.54
					C100.04,386.17,99.7,388.31,97.05,388.51z"/>
				<path class="st14" d="M97.82,387.5c-3.27,0.35-19.46-5.08-21.3-5.89c-1.33-0.58-1.9-1-1.97-1.98c-0.07-0.98,0.49-2.17,1.11-4.36
					c2.22,2.67,8.35,4.98,11.72,6.4c3.38,1.42,5.84,1.16,6.2-1.29c1.74,1.23,3.35,2.26,4.18,2.66
					C100.61,384.38,101.09,387.15,97.82,387.5z"/>
			</g>
			<path class="st16" d="M128.44,242.07c0.64-11.8,0.08-19.85,0.08-19.85l-2.27-4.99H93.28l-3.86,4.99c0,0-4.45,11.83-5.17,19.63
				c-0.03,0.28-0.01,0.55-0.02,0.82c-0.38,3.9,1.27,9.52,4.03,15.06c0.04,2.02-1.12,59.05-1.12,59.05h14.21l8.19-57.66
				C116.89,257.73,128.01,250.03,128.44,242.07z"/>
			<path class="st16" d="M99.15,146.66c0,0-6.94,10.77,8.36,11.48c18.79,0.88,12.76-11.72,12.76-11.72s12.74-6.82,13.68-13.91
				c0.94-7.09,3.66-11.78,1.67-20.76c-1.88-8.44-6.76-15.17-18.75-16.62c-20.1-2.42-27.37,8.29-28.4,25.17
				C87.1,142.56,99.15,146.66,99.15,146.66z"/>
			<path class="st17" d="M126.51,163.13c-3.31-0.89,0.92,15.04,0.92,15.04l7.36,6.35l7.26-6.68
				C142.06,177.85,133.66,165.05,126.51,163.13z"/>
			<path class="st17" d="M89.42,222.22c0,0,1.08-30.37,1.13-37.69c0.14-4.02,0.53-22.4,2.76-23.19c4.11-1.46,6.74-1.53,6.74-1.53
				l8.87,5.1l8.86-5.1c0,0,4.61,1.87,8.73,3.33c1.45,13.36,4.02,22.22,5.72,29.46c0.01,3.88-3.71,8.66-3.71,8.66l1.08,20.97H89.42z"
				/>
			<path class="st11" d="M83.55,236.39c0.03-6.34-1.42-20.66,0.64-36.3c0.84-6.4,6.36-13.44,6.37-15.56
				c0.14-4.02,0.53-22.4,2.76-23.19c4.11-1.46,6.74-1.53,6.74-1.53l6.42,24.72l-0.76,56.45C105.71,240.97,93.68,243.89,83.55,236.39
				z"/>
			<path class="st12" d="M117.79,159.8c2.38,4.95-2.97,10.28-2.97,10.28s-13.88-6.29-14.76-10.28c3.36-0.59,4.66-8.76,2.11-14.12
				c-2.55-5.36,16.22-1.14,13.88,1.41C113.71,149.65,114.41,159.22,117.79,159.8z"/>
			<path class="st18" d="M115.78,157.96c-5.45-2.11-8.28-8.78-8.26-14.75c4.49,0.49,9.84,2.45,8.53,3.88
				C114.29,149.02,114.25,154.91,115.78,157.96z"/>
			<path class="st12" d="M95,111.75l0.94,22.95c0,8.91,14.87,20.08,21.35,20.08c5.44,0,11.62-4.2,13.65-17.34
				c1.48-9.6,1.55-21.53,1.13-25.69H95z"/>
			<path class="st12" d="M100.01,131.48c0,2.72-1.04,4.65-3.99,4.93c-4.31,0.42-5.09-3.24-5.05-5.5c0.05-2.63,2.58-4.41,4.16-4.3
				C98.08,126.8,100.01,128.76,100.01,131.48z"/>
			<path class="st19" d="M109.09,127.38c0,0.95,0.77,1.72,1.71,1.72c0.95,0,1.71-0.77,1.71-1.72c0-0.94-0.76-1.71-1.71-1.71
				C109.86,125.67,109.09,126.44,109.09,127.38z"/>
			<path class="st19" d="M125.49,127.38c0,0.95,0.77,1.72,1.71,1.72c0.94,0,1.71-0.77,1.71-1.72c0-0.94-0.77-1.71-1.71-1.71
				C126.26,125.67,125.49,126.44,125.49,127.38z"/>
			<g>
				<path class="st18" d="M113.95,139.51c0,0,0.05,0.26,0.15,0.71c0.08,0.21,0.13,0.48,0.31,0.72c0.14,0.26,0.4,0.46,0.68,0.59
					c0.62,0.24,1.51,0.11,2.46-0.08c0.96-0.18,1.99-0.42,3.15-0.43c0.51,0.01,1.08,0.05,1.61,0.13c0.53,0.06,1.03,0.18,1.52,0.26
					c0.95,0.17,1.87,0.4,2.46,0.16c0.29-0.11,0.51-0.34,0.64-0.61c0.15-0.26,0.2-0.53,0.27-0.75c0.09-0.45,0.14-0.71,0.14-0.71
					s0.04,0.26,0.06,0.73c-0.02,0.24-0.01,0.53-0.12,0.86c-0.07,0.33-0.3,0.74-0.72,0.98c-0.41,0.26-0.92,0.32-1.39,0.31
					c-0.49,0.01-0.97-0.04-1.46-0.11c-1.01-0.11-1.96-0.26-3.02-0.26c-0.47,0-0.98,0.03-1.48,0.11c-0.51,0.07-1.02,0.13-1.51,0.19
					c-0.5,0.07-1,0.09-1.48,0.07c-0.49-0.03-0.97-0.12-1.37-0.36c-0.39-0.25-0.66-0.61-0.76-0.94c-0.14-0.33-0.13-0.63-0.16-0.87
					C113.92,139.78,113.95,139.51,113.95,139.51z"/>
			</g>
			<path class="st12" d="M82.94,228.15c-5.81-24.34-1.79-46.51-1.79-46.51l9.92-8.46c0,0-6.46,30.84-1.43,57.05
				C91.99,233.21,84.99,236.77,82.94,228.15z"/>
			<g>
				<path class="st12" d="M83.91,238.3c-0.52-2.05-0.33-8.25-0.33-8.25s3.15-4.13,4.73-2.07c0.62,0.82,8.2,3.85,8.78,4.01
					c0.91,0.25-0.18,1.99-1.72,2.01c-0.72,0.01-1.59-0.64-2.12-0.78c-0.43-0.11-0.23,2.46-0.1,3.15c0.13,0.69-1.7,1.24-4.08,2.24
					C85.29,240.22,84.09,239.01,83.91,238.3z"/>
				<path class="st12" d="M88.59,238.79c-1.12-0.33,3.64-1.81,2.66-1.06c-0.5,0.39,1.24,5.22,1.79,6.7
					c0.85,2.25-0.78,2.78-1.63,0.98C90.3,243.07,89.37,239.03,88.59,238.79z"/>
				<path class="st12" d="M86.09,239.26c-0.77-0.28,2.88-1.36,2.5-0.46c-0.61,0.56,0.97,5.36,1.77,7.08
					c0.72,1.54-0.75,1.64-1.51,0.02C87.77,243.64,86.63,239.46,86.09,239.26z"/>
				<path class="st12" d="M93.14,236.39c0,0-2.99,0.85-2.09,1.23c0.49-0.03,1.92,4.52,2.63,6.27c0.54,1.33,2.63,0.55,1.75-1.24
					C94.25,240.24,93.14,236.39,93.14,236.39z"/>
				<path class="st12" d="M83.91,238.3c-0.35-1.8,2.12,0.77,2.15,1.09c0.06,0.63,0.66,2.97,1.04,4.74c0.25,1.13-0.72,1.29-1.06,0.36
					C85.38,242.73,84.24,240.03,83.91,238.3z"/>
			</g>
			<path class="st17" d="M93.31,161.33c2.82-0.43-0.42,19.2-2.76,23.19c-0.55,4.35-1.3,8.75-1.3,8.75l-9.46-5.29
				C79.79,187.99,81.7,163.09,93.31,161.33z"/>
			<path class="st18" d="M120.16,133.15c1.05,0,1.92,0.6,2.18,1.41c0.05-0.16,0.09-0.32,0.09-0.49c0-1.05-1.01-1.9-2.26-1.9
				c-1.25,0-2.26,0.85-2.26,1.9c0,0.17,0.04,0.33,0.09,0.49C118.24,133.75,119.11,133.15,120.16,133.15z"/>
			<path class="st18" d="M92.96,131.67c0.04,1.1,1.39,2.66,2.13,2.19c0.75-0.47-0.94-3.1,1.68-2.55c0,0.87-0.47,2.65-1.91,2.91
				c-1.42,0.26-2.65-0.95-2.65-2.71c0.01-3.38,3.3-3.13,3.3-3.13S92.86,128.85,92.96,131.67z"/>
			<path class="st16" d="M130.59,123.52c-0.11,0.35-0.79-0.54-2.43-1.07c-1-0.33-1.84,0-2.45,0.25c-0.62,0.25-0.88-1.23-0.56-1.49
				c0.39-0.33,1.78-0.68,3.11-0.24C129.86,121.49,130.7,123.17,130.59,123.52z"/>
			<path class="st16" d="M106.69,123.43c0.11,0.35,1.05-0.26,2.68-0.79c1-0.32,1.84,0,2.45,0.25c0.62,0.25,0.88-1.23,0.56-1.49
				c-0.4-0.33-1.78-0.68-3.11-0.24C107.67,121.69,106.58,123.08,106.69,123.43z"/>
			<path class="st18" d="M94.94,111.75l2.6,17.1c1.78-2.92,5.06-2.66,9.14-4.17c6.45-2.38,16.74-7.85,16.74-7.85
				s3.24,4.27,4.75,5.62c2.57,2.28,4.45,3.68,4.52,3.68l-0.7-14.39H94.94z"/>
			<path class="st16" d="M133.18,108.57c1,5.13,0.63,12.92-0.61,15.65c-7.08-7.75-7.55-11.7-7.55-11.7s-8.77,9.66-25.01,11.91
				c-1.74,2.45-1.71,8.08-1.71,8.08s-2.33-2.55-4.18-8.94c-1.08-3.75-0.61-10.26-0.04-15H133.18z"/>
			<g>
				<path class="st12" d="M129.05,217.06c1.87-0.99,6.34-5.28,6.34-5.28s0.96-5.1-1.63-4.89c-0.41,0.03-1.44-0.35-3.03-1.05
					c-2.38-1.05-4.68-0.13-5.32,0.34c-0.97,0.71-1.13,2.74-1.13,2.74s-0.71,0.55-0.63,1.09c0.2,1.23,1.25,2.07,1.25,2.07
					s-0.95,0.59,0.7,2.09c0.38,1.09-0.13,1.5,1.67,2.14C127.38,217.43,128.58,217.3,129.05,217.06z"/>
				<polygon class="st20" points="124.28,208.92 127.32,207.28 126.39,206.77 126.03,207.73 				"/>
			</g>
			<path class="st12" d="M133.39,207.54l-0.22,5.31c0,0,14.16-4.26,17.54-17.51c1.88-7.36-7.5-11.81-8.36-3.62
				C141.38,200.9,133.39,207.54,133.39,207.54z"/>
			<g>
				<path class="st21" d="M118.4,128.65c0,4.2-3.41,7.6-7.6,7.6c-4.2,0-7.6-3.4-7.6-7.6c0-4.2,3.4-7.6,7.6-7.6
					C115,121.05,118.4,124.46,118.4,128.65z"/>
				<path class="st21" d="M137.34,128.65c0,4.2-3.4,7.6-7.6,7.6c-4.2,0-7.6-3.4-7.6-7.6c0-4.2,3.4-7.6,7.6-7.6
					C133.94,121.05,137.34,124.46,137.34,128.65z"/>
				<path class="st21" d="M118.4,128.97c0.26-2.19,3.44-1.94,3.76,0"/>
				<path class="st22" d="M139.02,129.05c0,0.47-0.38,0.85-0.85,0.85c-0.47,0-0.85-0.38-0.85-0.85c0-0.47,0.38-0.85,0.85-0.85
					C138.64,128.2,139.02,128.58,139.02,129.05z"/>
				<path class="st22" d="M103.2,129.05c0,0.47-0.38,0.85-0.85,0.85c-0.47,0-0.85-0.38-0.85-0.85c0-0.47,0.38-0.85,0.85-0.85
					C102.82,128.2,103.2,128.58,103.2,129.05z"/>
			</g>
		</g>
		<g>
			<path class="st23" d="M352.56,178.28h-69.39c-3.79,0-6.86,3.07-6.86,6.86v16.4c0,3.79,3.07,6.86,6.86,6.86h7.63v11.44
				l12.32-11.44h49.45c3.79,0,6.86-3.07,6.86-6.86v-16.4C359.42,181.35,356.35,178.28,352.56,178.28z"/>
			<rect x="283.64" y="185.05" class="st24" width="14.3" height="16.01"/>
			<rect x="305.09" y="185.05" class="st24" width="46.9" height="4"/>
			<rect x="305.09" y="191.06" class="st24" width="46.9" height="4"/>
			<rect x="305.09" y="197.06" class="st24" width="40.61" height="4"/>
		</g>
		<g>
			<path class="st25" d="M164.77,54.89H96.43c-3.73,0-6.76,3.02-6.76,6.76V77.8c0,3.73,3.03,6.76,6.76,6.76h48.1l-1.67,13.76
				l13.08-13.76h8.84c3.73,0,6.76-3.03,6.76-6.76V61.65C171.53,57.92,168.5,54.89,164.77,54.89z"/>
			<rect x="96.9" y="61.56" class="st26" width="14.08" height="15.77"/>
			<rect x="118.02" y="61.56" class="st26" width="46.19" height="3.94"/>
			<rect x="118.02" y="67.47" class="st26" width="46.19" height="3.94"/>
			<rect x="118.02" y="73.39" class="st26" width="39.99" height="3.94"/>
		</g>
		<g>
			<path class="st0" d="M227.3,199.06c19.47,0,35.26,15.79,35.26,35.26c0,6.38-1.7,12.37-4.67,17.53l11.27,21.85l-21.38-10.69
				c-5.77,4.13-12.84,6.57-20.48,6.57c-19.47,0-35.26-15.79-35.26-35.26C192.04,214.85,207.83,199.06,227.3,199.06z"/>
			<g>
				<path class="st27" d="M228.38,234.04c5.21,0,9.42-4.22,9.42-9.42c0-5.2-4.22-9.42-9.42-9.42c-5.2,0-9.42,4.22-9.42,9.42
					C218.95,229.82,223.17,234.04,228.38,234.04z"/>
				<path class="st27" d="M228.38,235.95c-7.97,0-14.43,6.46-14.43,14.44h28.87C242.81,242.41,236.35,235.95,228.38,235.95z"/>
			</g>
		</g>
		<g>
			<g>
				<path class="st28" d="M259.25,356.33c-0.34-1.7,2.11-9.29,2.11-9.29l1.72-6.03c0,0,3.74,2.82,3.74,2.82s-1.05,2.82-0.07,5.18
					c0.32,0.78,3.09,2.53,3.56,2.69c0.73,0.24-0.23,1.63-1.49,1.58c-0.59-0.02-1.28-0.59-1.71-0.72c-0.35-0.11-0.29,2.01-0.21,2.58
					c0.08,0.58-1.44,0.94-3.44,1.67C260.31,357.97,259.37,356.92,259.25,356.33z"/>
			</g>
			<path class="st29" d="M282.14,290.51c2.71-0.58,4.47,14.79,2.2,18.67c-5.15,5.3-11.47,12.61-12.86,17.42
				c-1.39,4.8-4.2,21.88-4.2,21.88h-6.61c0,0-1.26-17.11,0.97-24.99C263.87,315.61,275.78,292.51,282.14,290.51z"/>
			<path class="st30" d="M329.47,382.4c0,0,12.59,1.66,17.78,1.27c6.81-0.51,7.74-9.93-0.39-10.04c-8.14-0.11-17.3,2.08-17.3,2.08
				L329.47,382.4z"/>
			<path class="st31" d="M280.76,367.33c0.41-10.11,1.75-18.23,1.75-18.23c2.86-3.02,12.87-11.77,12.87-11.77s25.21,14.17,26,14.2
				c0,0,3.16,3.34,4.2,14.71c0,0.04,0.01,0.44,0.02,1.09l-23.95,6.3L280.76,367.33z"/>
			<path class="st32" d="M303.82,277.63c-16.89-0.08-21.59-13.72-21.59-13.72s-7.44-4.15-7.44-15.45c0-10.14,1.61-20.6,16.63-22.11
				c20.55-2.07,29.98,5.47,30.08,21.88C321.58,262.87,315.53,277.69,303.82,277.63z"/>
			<path class="st33" d="M323.61,356.81c4.24-1.57-1.8-38.87-1.8-43.09c0-11.01,2.28-24.25-1.72-25.67
				c-3.99-1.42-9.84-1.47-9.84-1.47l-8.61,4.95l-8.61-4.95c0,0-5.17,1.89-9.16,3.31c-1.4,12.97-3.81,20.39-4.36,25.69
				c-0.54,5.3,0.84,25.17,0.84,25.17s-2.27,15.77,1.87,17.18C286.37,359.35,319.37,358.38,323.61,356.81z"/>
			<path class="st34" d="M311.02,286.61c0,0,5.08,0.03,9.07,1.45c3.99,1.42,1.8,10.72,1.8,21.74c0,4.22,9.37,59.42,5.12,60.99
				c-1.58,0.58-9.51,0.38-16.11,0.71l-3.56-60.42L311.02,286.61z"/>
			<path class="st34" d="M279.52,315.58c0.54-5.3,1.23-12.1,2.63-25.07c2.06-0.73,4.89-1.75,7.14-2.57l2.63,22.19l-3.79,60.65
				c-3.46-0.09-6.08-0.29-7.06-0.63c-4.14-1.42-1.68-30.6-1.68-30.6S278.97,320.88,279.52,315.58z"/>
			<path class="st12" d="M293.03,286.58c-0.49,3.41-3.89,7.34,4.31,7.34c8.2,0,12.06-3.46,12.91-7.34
				c-3.26-0.57-4.53-8.51-2.05-13.71c2.48-5.2-15.75-1.11-13.48,1.37C296.99,276.72,296.31,286.01,293.03,286.58z"/>
			<path class="st35" d="M294.98,284.79c5.29-2.05,8.04-8.53,8.02-14.32c-4.35,0.48-9.55,2.38-8.28,3.77
				C296.43,276.11,296.47,281.83,294.98,284.79z"/>
			<path class="st12" d="M315.15,239.93l-0.91,22.29c0,8.65-14.43,19.5-20.73,19.5c-5.28,0-13.32-8.98-14.51-17.07
				c-1.37-9.33-0.25-20.68,0.16-24.72H315.15z"/>
			<path class="st12" d="M310.29,259.09c0,2.65,1.01,4.51,3.88,4.79c4.19,0.41,4.95-3.14,4.9-5.34c-0.05-2.55-2.5-4.28-4.04-4.18
				C312.16,254.54,310.29,256.44,310.29,259.09z"/>
			<path class="st32" d="M301.47,255.1c0,0.92-0.74,1.67-1.66,1.67c-0.92,0-1.66-0.74-1.66-1.67c0-0.92,0.74-1.66,1.66-1.66
				C300.73,253.44,301.47,254.19,301.47,255.1z"/>
			<path class="st32" d="M285.55,255.1c0,0.92-0.74,1.67-1.66,1.67c-0.92,0-1.66-0.74-1.66-1.67c0-0.92,0.75-1.66,1.66-1.66
				C284.81,253.44,285.55,254.19,285.55,255.1z"/>
			<path class="st0" d="M297.34,267.11c0,4.07-3.7,4.87-5.6,4.87c-1.89,0-6.25-0.8-6.25-4.87H297.34z"/>
			<path class="st36" d="M290.73,260.71c-1.01,0-1.86,0.58-2.11,1.37c-0.05-0.15-0.08-0.31-0.08-0.47c0-1.02,0.98-1.84,2.19-1.84
				c1.21,0,2.2,0.83,2.2,1.84c0,0.17-0.04,0.32-0.08,0.47C292.59,261.29,291.74,260.71,290.73,260.71z"/>
			<path class="st36" d="M317.14,259.26c-0.04,1.07-1.35,2.58-2.07,2.13c-0.72-0.46,0.91-3.01-1.63-2.48c0,0.85,0.45,2.58,1.85,2.83
				c1.38,0.25,2.57-0.92,2.57-2.64c-0.01-3.28-3.2-3.04-3.2-3.04S317.23,256.53,317.14,259.26z"/>
			<path class="st32" d="M280.6,251.35c0.1,0.34,0.77-0.52,2.35-1.03c0.97-0.32,1.79,0,2.38,0.25c0.6,0.24,0.85-1.19,0.54-1.45
				c-0.38-0.32-1.72-0.66-3.02-0.23C281.31,249.39,280.5,251.01,280.6,251.35z"/>
			<path class="st32" d="M303.81,251.27c-0.1,0.34-1.02-0.25-2.61-0.76c-0.97-0.32-1.79,0-2.38,0.24c-0.6,0.25-0.85-1.19-0.54-1.45
				c0.38-0.32,1.73-0.66,3.02-0.24C302.85,249.57,303.91,250.93,303.81,251.27z"/>
			<path class="st36" d="M315.22,239.93c0,0-2.73,19.11-4.92,19.16c1.48-6.16-2.7-15.96-9.17-11.77
				c-8.75,5.67-13.42-5.59-19.14-0.16c-2.42,2.3-3.77,6.88-3.83,6.88l1.1-14.11H315.22z"/>
			<path class="st32" d="M278.09,236.84c-0.97,4.98-0.95,13.25,0.25,15.9c-0.19-7.13,3.52-14.4,11.13-8.25
				c6.96,5.62,13.31-5.33,18.12,1.03c4.67,6.16,2.66,15.41,2.66,15.41l1.7-0.83c0,0,2.26-2.48,4.06-8.68
				c1.05-3.64,0.59-9.96,0.04-14.57H278.09z"/>
			<g>
				<path class="st28" d="M346.42,356.33c0.34-1.7-2.11-9.29-2.11-9.29l-1.72-6.03c0,0-3.74,2.82-3.74,2.82s1.05,2.82,0.07,5.18
					c-0.32,0.78-3.09,2.53-3.56,2.69c-0.73,0.24,0.23,1.63,1.5,1.58c0.59-0.02,1.28-0.59,1.71-0.72c0.35-0.11,0.29,2.01,0.21,2.58
					c-0.08,0.58,1.44,0.94,3.44,1.67C345.36,357.97,346.3,356.92,346.42,356.33z"/>
			</g>
			<path class="st29" d="M320.09,288.05c-2.71-0.58-1.04,17.25,1.23,21.13c5.14,5.3,11.47,12.61,12.86,17.42
				c1.39,4.8,4.2,21.88,4.2,21.88H345c0,0,1.26-17.11-0.97-24.99C341.8,315.61,331.45,293.16,320.09,288.05z"/>
			<path class="st37" d="M273.45,356.19c14.31,9.31,41.52,16.91,57.05,17.89l-0.09,9.06c0,0-44.63-0.99-64.47-13.19
				C248.77,359.39,259.14,346.89,273.45,356.19z"/>
			<path class="st30" d="M274.08,382.4c0,0-12.59,1.66-17.78,1.27c-6.81-0.51-7.74-9.93,0.39-10.04c8.14-0.11,17.3,2.08,17.3,2.08
				L274.08,382.4z"/>
			<path class="st38" d="M330.09,356.19c-14.31,9.31-41.52,16.91-57.05,17.89l0.09,9.06c0,0,44.63-0.99,64.47-13.19
				C354.78,359.39,344.4,346.89,330.09,356.19z"/>
			<g>
				<path class="st12" d="M345.17,356.11c0.29,1.21,1.41,1.09,1.38-0.09c-0.01-0.83-0.08-1.56-0.08-2.74c0-1.18-1.62-1.04-1.62-0.08
					C344.86,354.15,344.91,355.01,345.17,356.11z"/>
				<path class="st12" d="M343.41,356.23c0.33,1.45,1.61,1.3,1.59-0.11c-0.02-1-0.09-1.87-0.09-3.29c0-1.42-1.85-1.25-1.85-0.1
					C343.06,353.88,343.12,354.91,343.41,356.23z"/>
				<path class="st12" d="M341.52,355.95c0.33,1.5,1.61,1.34,1.59-0.12c-0.02-1.03-0.09-1.93-0.09-3.39s-1.85-1.29-1.85-0.1
					C341.17,353.52,341.23,354.59,341.52,355.95z"/>
				<path class="st12" d="M339.58,354.58c0.33,1.26,1.61,1.13,1.59-0.1c-0.02-0.87-0.09-1.62-0.09-2.86c0-1.24-1.86-1.09-1.86-0.09
					C339.22,352.53,339.29,353.44,339.58,354.58z"/>
			</g>
			<g>
				<path class="st12" d="M260.5,356.11c-0.28,1.21-1.4,1.09-1.38-0.09c0.02-0.83,0.08-1.56,0.08-2.74c0-1.18,1.62-1.04,1.62-0.08
					C260.81,354.15,260.76,355.01,260.5,356.11z"/>
				<path class="st12" d="M262.26,356.23c-0.33,1.45-1.61,1.3-1.59-0.11c0.02-1,0.09-1.87,0.09-3.29c0-1.42,1.85-1.25,1.85-0.1
					C262.61,353.88,262.55,354.91,262.26,356.23z"/>
				<path class="st12" d="M264.15,355.95c-0.33,1.5-1.61,1.34-1.59-0.12c0.02-1.03,0.09-1.93,0.09-3.39s1.85-1.29,1.85-0.1
					C264.5,353.52,264.44,354.59,264.15,355.95z"/>
				<path class="st12" d="M266.09,354.58c-0.33,1.26-1.61,1.13-1.59-0.1c0.02-0.87,0.09-1.62,0.09-2.86c0-1.24,1.85-1.09,1.85-0.09
					C266.45,352.53,266.38,353.44,266.09,354.58z"/>
			</g>
		</g>
	</g>
</g>
</svg>
